<svg width="1234" height="667" viewBox="0 0 1234 667" fill="none" xmlns="http://www.w3.org/2000/svg">
<path fill-rule="evenodd" clip-rule="evenodd" d="M63.004 4.912C63.004 13.78 60.221 25.133 55.899 33.9C46.53 52.905 28.684 63.896 5.004 65.244L0.504 65.5L0.251999 333.75L0 602L5.252 602.017C18.438 602.061 34.43 608.082 43.847 616.548C54.82 626.414 61.464 641.083 62.673 658.111L63.303 667H617.654H1172L1172.01 662.75C1172.02 660.413 1172.49 655.604 1173.06 652.065C1177.72 623.363 1197.5 604.757 1225.87 602.391L1234 601.712V333.356V65L1228.75 64.983C1214 64.934 1200.07 59.113 1189.41 48.537C1178.87 38.074 1173.9 26.311 1172.4 8.25L1171.72 0H617.36H63.004V4.912ZM80.471 23.25C79.533 28.87 75.444 40.133 72.254 45.885C62.581 63.326 46.004 76.419 28.177 80.697C24.507 81.577 20.941 82.442 20.252 82.618C19.253 82.874 19.051 133.537 19.252 333.636L19.504 584.333L26.415 585.73C51.199 590.738 73.143 613.414 79.662 640.75L81.391 648H617.95H1154.51L1156.24 640.395C1157.91 633.044 1164.39 617.847 1166.15 617.167C1166.62 616.983 1167 616.402 1167 615.874C1167 614.652 1168.06 613.352 1176 604.832C1185.66 594.468 1197.68 587.929 1213.26 584.557L1216.01 583.961L1215.76 333.318L1215.5 82.675L1209.08 81.364C1186.36 76.731 1166.75 58.512 1158.4 34.287C1156.54 28.904 1155.02 23.263 1155.01 21.75L1155 19H618.092H81.18L80.471 23.25ZM85.008 32.214C78.267 54.407 62.744 72.617 41.926 82.753C38.309 84.515 33.021 86.493 30.176 87.15L25.004 88.343V333.513V578.682L30.579 579.929C33.646 580.616 40.283 583.24 45.329 585.762C52.927 589.559 56.051 591.906 63.504 599.423C73.752 609.759 79.429 618.894 84.151 632.647L87.191 641.5H618.073H1148.96L1149.6 638.5C1150.71 633.371 1155.64 621.737 1159.57 614.971C1164.6 606.319 1178.66 592.39 1187.59 587.209C1191.49 584.948 1198.02 581.976 1202.09 580.603L1209.5 578.108V333.46V88.812L1202.5 86.575C1177.43 78.559 1159.83 60.395 1151.09 33.5L1148.48 25.5L617.842 25.249L87.199 24.998L85.008 32.214ZM94.048 47.688C84.085 69.846 66.8 87.417 45.43 97.106L39.004 100.02V333.874V567.728L43.254 569.352C52.642 572.937 63.492 580.361 72.554 589.398C77.573 594.404 83.079 600.571 84.789 603.103C88.28 608.272 97.004 625.293 97.004 626.935C97.004 627.69 249.297 627.928 617.639 627.751L1138.27 627.5L1141.77 619.5C1151.04 598.289 1166.1 582.255 1186.46 571.907L1195.5 567.315L1195.76 333.668L1196.01 100.022L1189.68 97.151C1169.16 87.85 1154.01 73.094 1143.98 52.668C1141.25 47.083 1139 41.948 1139 41.257C1139 40.249 1035.74 40 618.254 40.001L97.504 40.002L94.048 47.688Z" fill="#502A0B"/>
</svg>
